# xmcd
#
# Track frame offsets:
#	150
#	19996
#	38124
#	57679
#	74414
#	93204
#	105504
#	118029
#	132856
#	147454
#	162868
#	179531
#	200704
#	221321
#
# Disc length: 3163 seconds
#
# Revision: 0
# Processed by: cddbd v1.5.1PL2 Copyright (c) Steve Scherf et al.
# Submitted via: dBpowerAMP V4.0
#
DISCID=d20c590e
DTITLE=Leonardo - Todo Seu (Disco 2)
DYEAR=1900
DGENRE=
TTITLE0=Deixaria Tudo (Dejaria Todo)
TTITLE1=Quero Colo
TTITLE2=Coração Espinhado (Corazon Espinado)
TTITLE3=Dona Encrenca
TTITLE4=Cristal Quebrado
TTITLE5=Rola Pinga
TTITLE6=Parei Na Contramção
TTITLE7=Água De Coco
TTITLE8=Todas As Coisas Do Mundo
TTITLE9=Tô fora
TTITLE10=Feitiço
TTITLE11=O Quanto te Amei
TTITLE12=Maior Amor Do Mundo
TTITLE13=Só Deus Pra Mudar Nosso Amor
EXTD=Disco 2
EXTT0=
EXTT1=
EXTT2=
EXTT3=
EXTT4=
EXTT5=
EXTT6=
EXTT7=
EXTT8=
EXTT9=
EXTT10=
EXTT11=
EXTT12=
EXTT13=
PLAYORDER=
